<svg width="539" height="509" viewBox="0 0 539 509" fill="none" xmlns="http://www.w3.org/2000/svg">
<path d="M326.132 122.449C326.132 141.535 310.654 157.012 291.568 157.012C272.482 157.012 257.005 141.535 257.005 122.449C257.005 103.363 272.482 87.8851 291.568 87.8851C310.654 87.8851 326.132 103.333 326.132 122.449ZM220.204 195.691C208.306 195.691 198.613 205.354 198.613 217.282C198.613 229.211 208.276 238.873 220.204 238.873C232.133 238.873 241.795 229.211 241.795 217.282C241.795 205.354 232.133 195.691 220.204 195.691ZM231.686 141.445C219.787 141.445 210.095 151.108 210.095 163.036C210.095 174.935 219.757 184.627 231.686 184.627C243.585 184.627 253.277 174.965 253.277 163.036C253.247 151.108 243.585 141.445 231.686 141.445ZM227.57 32.9532C215.672 32.9532 205.979 42.6155 205.979 54.5442C205.979 66.4432 215.642 76.1353 227.57 76.1353C239.469 76.1353 249.161 66.473 249.161 54.5442C249.161 42.6155 239.469 32.9532 227.57 32.9532ZM144.636 142.012C132.737 142.012 123.045 151.674 123.045 163.603C123.045 175.532 132.707 185.194 144.636 185.194C156.535 185.194 166.227 175.532 166.227 163.603C166.227 151.674 156.535 142.012 144.636 142.012ZM349.244 76.8808C337.345 76.8808 327.653 86.5431 327.653 98.4719C327.653 110.371 337.315 120.063 349.244 120.063C361.143 120.063 370.835 110.401 370.835 98.4719C370.805 86.5431 361.143 76.8808 349.244 76.8808ZM401.7 117.051C394.513 117.051 388.698 122.866 388.698 130.053C388.698 137.24 394.513 143.056 401.7 143.056C408.887 143.056 414.703 137.24 414.703 130.053C414.732 122.896 408.887 117.051 401.7 117.051ZM204.667 249.937C197.48 249.937 191.665 255.753 191.665 262.94C191.665 270.127 197.48 275.942 204.667 275.942C211.854 275.942 217.67 270.127 217.67 262.94C217.67 255.753 211.854 249.937 204.667 249.937ZM326.788 43.1225C319.601 43.1225 313.785 48.9377 313.785 56.1248C313.785 63.3119 319.601 69.1271 326.788 69.1271C333.975 69.1271 339.79 63.3119 339.79 56.1248C339.79 48.9377 333.975 43.1225 326.788 43.1225ZM179.408 48.5799C172.221 48.5799 166.406 54.3951 166.406 61.5822C166.406 68.7693 172.221 74.5845 179.408 74.5845C186.595 74.5845 192.411 68.7693 192.411 61.5822C192.411 54.3951 186.595 48.5799 179.408 48.5799ZM384.046 64.296C376.859 64.296 371.043 70.1113 371.043 77.2983C371.043 84.4854 376.859 90.3007 384.046 90.3007C391.233 90.3007 397.048 84.4854 397.048 77.2983C397.048 70.1113 391.203 64.296 384.046 64.296ZM238.992 91.0462C231.805 91.0462 225.99 96.8615 225.99 104.049C225.99 111.236 231.805 117.051 238.992 117.051C246.179 117.051 251.995 111.236 251.995 104.049C252.024 96.8615 246.179 91.0462 238.992 91.0462ZM273.019 56.1248C265.832 56.1248 260.017 61.9401 260.017 69.1271C260.017 76.3142 265.832 82.1295 273.019 82.1295C280.206 82.1295 286.021 76.3142 286.021 69.1271C286.021 61.9401 280.206 56.1248 273.019 56.1248ZM190.293 22.7243C185.551 22.7243 181.704 26.5713 181.704 31.313C181.704 36.0547 185.551 39.9017 190.293 39.9017C195.035 39.9017 198.882 36.0547 198.882 31.313C198.852 26.5713 195.005 22.7243 190.293 22.7243ZM364.99 127.25C360.248 127.25 356.401 131.097 356.401 135.839C356.401 140.58 360.248 144.427 364.99 144.427C369.731 144.427 373.578 140.58 373.578 135.839C373.548 131.097 369.701 127.25 364.99 127.25ZM403.639 167.032C398.897 167.032 395.05 170.879 395.05 175.621C395.05 180.363 398.897 184.21 403.639 184.21C408.38 184.21 412.227 180.363 412.227 175.621C412.227 170.879 408.38 167.032 403.639 167.032ZM384.344 212.57C379.602 212.57 375.755 216.417 375.755 221.159C375.755 225.901 379.602 229.748 384.344 229.748C389.086 229.748 392.933 225.901 392.933 221.159C392.933 216.417 389.086 212.57 384.344 212.57ZM357.325 226.02C352.584 226.02 348.737 229.867 348.737 234.609C348.737 239.35 352.584 243.197 357.325 243.197C362.067 243.197 365.914 239.35 365.914 234.609C365.914 229.867 362.067 226.02 357.325 226.02ZM289.093 273.586C284.351 273.586 280.504 277.433 280.504 282.175C280.504 286.916 284.351 290.763 289.093 290.763C293.835 290.763 297.682 286.916 297.682 282.175C297.682 277.433 293.835 273.586 289.093 273.586ZM247.82 0C243.078 0 239.231 3.84702 239.231 8.5887C239.231 13.3304 243.078 17.1774 247.82 17.1774C252.561 17.1774 256.408 13.3304 256.408 8.5887C256.408 3.84702 252.531 0 247.82 0ZM344.651 252.353C339.909 252.353 336.062 256.2 336.062 260.942C336.062 265.683 339.909 269.53 344.651 269.53C349.393 269.53 353.24 265.683 353.24 260.942C353.24 256.2 349.393 252.353 344.651 252.353ZM256.08 251.309C251.338 251.309 247.491 255.156 247.491 259.898C247.491 264.639 251.338 268.486 256.08 268.486C260.822 268.486 264.669 264.639 264.669 259.898C264.669 255.156 260.822 251.309 256.08 251.309ZM242.72 272.662C237.978 272.662 234.131 276.509 234.131 281.25C234.131 285.992 237.978 289.839 242.72 289.839C247.462 289.839 251.309 285.992 251.309 281.25C251.309 276.509 247.462 272.662 242.72 272.662ZM321.39 8.8571C316.648 8.8571 312.801 12.7041 312.801 17.4458C312.801 22.1875 316.648 26.0345 321.39 26.0345C326.132 26.0345 329.979 22.1875 329.979 17.4458C329.979 12.7041 326.132 8.8571 321.39 8.8571ZM358.041 31.1937C353.299 31.1937 349.452 35.0407 349.452 39.7824C349.452 44.5241 353.299 48.3711 358.041 48.3711C362.783 48.3711 366.63 44.5241 366.63 39.7824C366.63 35.0407 362.783 31.1937 358.041 31.1937ZM147.022 70.7673C142.28 70.7673 138.433 74.6144 138.433 79.356C138.433 84.0977 142.28 87.9447 147.022 87.9447C151.763 87.9447 155.61 84.0977 155.61 79.356C155.61 74.6144 151.763 70.7673 147.022 70.7673ZM133.304 107.955C128.562 107.955 124.715 111.802 124.715 116.544C124.715 121.286 128.562 125.133 133.304 125.133C138.045 125.133 141.892 121.286 141.892 116.544C141.862 111.802 138.045 107.955 133.304 107.955ZM187.55 164.766C182.808 164.766 178.961 168.613 178.961 173.355C178.961 178.096 182.808 181.914 187.55 181.914C192.291 181.914 196.138 178.066 196.138 173.325C196.138 168.583 192.291 164.766 187.55 164.766ZM208.306 11.8095C205.86 11.8095 203.892 13.7777 203.892 16.2231C203.892 18.6685 205.86 20.6367 208.306 20.6367C210.751 20.6367 212.719 18.6685 212.719 16.2231C212.719 13.8075 210.751 11.8095 208.306 11.8095ZM283.516 169.836C271.617 169.836 261.925 179.498 261.925 191.427C261.925 203.326 271.588 213.018 283.516 213.018C295.415 213.018 305.107 203.355 305.107 191.427C305.077 179.498 295.415 169.836 283.516 169.836ZM346.798 150.034C327.712 150.034 312.235 165.511 312.235 184.597C312.235 203.683 327.712 219.161 346.798 219.161C365.884 219.161 381.362 203.683 381.362 184.597C381.362 165.511 365.884 150.034 346.798 150.034ZM269.321 219.012C262.134 219.012 256.319 224.827 256.319 232.014C256.319 239.201 262.134 245.017 269.321 245.017C276.508 245.017 282.323 239.201 282.323 232.014C282.353 224.827 276.508 219.012 269.321 219.012ZM309.73 222.382C297.831 222.382 288.139 232.044 288.139 243.973C288.139 255.872 297.801 265.564 309.73 265.564C321.629 265.564 331.321 255.902 331.321 243.973C331.321 232.044 321.629 222.382 309.73 222.382ZM165.959 195.691C154.06 195.691 144.368 205.354 144.368 217.282C144.368 229.211 154.03 238.873 165.959 238.873C177.857 238.873 187.55 229.211 187.55 217.282C187.55 205.354 177.887 195.691 165.959 195.691ZM183.822 80.9068C164.736 80.9068 149.258 96.3843 149.258 115.47C149.258 134.556 164.736 150.034 183.822 150.034C202.908 150.034 218.385 134.556 218.385 115.47C218.385 96.3843 202.908 80.9068 183.822 80.9068ZM282.353 5.18901C270.454 5.18901 260.762 14.8513 260.762 26.7801C260.762 38.679 270.424 48.3711 282.353 48.3711C294.252 48.3711 303.944 38.7088 303.944 26.7801C303.914 14.8513 294.252 5.18901 282.353 5.18901Z" fill="white"/>
<path d="M90.5391 357.654H63.6398L19.5631 403.371V357.624H0V455.47H19.5631V431.553L38.9771 411.363L69.9322 455.47H95.4299L52.9338 396.81L90.5391 357.654ZM302.423 357.654L285.067 363.439L251.07 374.861V375.04C245.643 377.068 240.692 380.229 236.547 384.285C232.402 388.341 229.151 393.231 227.004 398.629C224.857 404.027 223.873 409.812 224.111 415.598C224.35 421.383 225.781 427.079 228.346 432.298C230.911 437.517 234.519 442.11 238.962 445.837C243.406 449.565 248.595 452.309 254.172 453.919C259.748 455.529 265.593 455.947 271.349 455.172C277.105 454.396 282.622 452.398 287.542 449.356C288.377 448.849 289.153 448.342 289.928 447.746L302.364 439.426V455.559H321.927V357.624H302.423V357.654ZM302.423 414.375L277.701 432.328C275.077 434.028 272.124 435.161 269.023 435.638C265.921 436.115 262.76 435.907 259.748 435.072C256.736 434.237 253.933 432.745 251.547 430.747C249.161 428.749 247.223 426.244 245.851 423.411C244.509 420.578 243.764 417.507 243.704 414.405C243.644 411.274 244.241 408.172 245.464 405.309C246.686 402.417 248.505 399.852 250.802 397.735C253.098 395.617 255.842 394.007 258.794 393.023L302.364 377.247L302.423 414.375ZM406.74 372.505V406.741H406.591C406.591 407.546 406.68 408.351 406.68 409.186C406.68 415.658 404.116 421.89 399.523 426.483C394.931 431.075 388.728 433.64 382.227 433.64C375.725 433.64 369.522 431.075 364.93 426.483C360.337 421.89 357.773 415.687 357.773 409.186C357.773 408.381 357.802 407.546 357.892 406.741H357.773V357.654H338.269V406.592C338.269 407.397 338.269 408.202 338.269 409.037C338.269 417 340.416 424.843 344.532 431.672C348.617 438.501 354.492 444.108 361.53 447.865C368.568 451.623 376.471 453.412 384.433 453.024C392.396 452.637 400.09 450.102 406.74 445.658V475.093C406.74 478.969 405.816 482.816 404.056 486.276C402.267 489.735 399.702 492.717 396.541 494.984L410.468 508.911C415.448 504.795 419.444 499.606 422.158 493.761C424.902 487.916 426.333 481.534 426.303 475.093V357.684H406.71L406.74 372.505ZM167.39 357.743H111.146V509H130.709V455.5L152.539 448.223L182.182 438.352V438.173C191.307 434.744 198.942 428.242 203.773 419.773C208.574 411.304 210.274 401.403 208.544 391.83C206.814 382.227 201.745 373.579 194.259 367.316C186.774 361.083 177.35 357.654 167.599 357.654L167.39 357.743ZM174.249 420.25L130.679 435.996V377.187H167.39C172.639 377.187 177.679 379.066 181.675 382.466C185.671 385.865 188.295 390.577 189.13 395.737C189.965 400.896 188.921 406.204 186.178 410.677C183.464 415.151 179.229 418.491 174.249 420.131V420.25ZM523.224 304.482L509.297 318.319C512.459 320.585 515.053 323.568 516.842 327.057C518.632 330.516 519.526 334.363 519.526 338.27V357.833L497.697 365.109L468.143 374.951V375.159C459.018 378.589 451.383 385.09 446.552 393.56C441.751 402.029 440.051 411.93 441.781 421.503C443.51 431.105 448.58 439.754 456.065 446.016C463.551 452.249 472.974 455.679 482.726 455.679H539V338.27C539.03 331.798 537.628 325.417 534.885 319.571C532.141 313.726 528.175 308.537 523.194 304.392V304.482H523.224ZM519.407 436.175H482.816C477.567 436.175 472.497 434.296 468.531 430.926C464.535 427.527 461.911 422.815 461.076 417.656C460.241 412.496 461.284 407.188 463.998 402.715C466.712 398.242 470.947 394.901 475.927 393.261L519.497 377.515L519.407 436.175Z" fill="white"/>
<path d="M354.641 508.672L359.681 500.59C358.19 500.143 357.087 499.427 356.341 498.443C355.596 497.429 355.238 496.236 355.238 494.864C355.238 493.641 355.536 492.568 356.103 491.614C356.669 490.689 357.534 489.944 358.637 489.407C359.771 488.87 361.172 488.602 362.813 488.602H370.387V508.642H366.958V501.007H362.753L358.309 508.672H354.641ZM358.667 494.864C358.667 495.908 359.025 496.683 359.711 497.28C360.427 497.846 361.649 498.145 363.409 498.145H366.988V491.614H363.409C361.649 491.614 360.427 491.912 359.711 492.478C358.995 493.045 358.667 493.85 358.667 494.864Z" fill="white"/>
<path d="M334.303 508.672V488.632H337.732V503.244L347.574 488.632H350.884V508.672H347.454V494.059L337.613 508.672H334.303Z" fill="white"/>
<path d="M312.563 508.672V488.632H315.992V496.892H325.744V488.632H329.174V508.672H325.744V499.845H315.992V508.672H312.563Z" fill="white"/>
<path d="M290.942 508.672L298.546 488.632H301.976L309.581 508.672H305.912L304.213 504.139H296.071L294.371 508.672H290.942ZM297.175 501.187H303.079L300.157 492.926L297.175 501.187Z" fill="white"/>
<path d="M271.617 508.672V488.632H287.93V508.672H284.5V491.614H275.047V508.672H271.617Z" fill="white"/>
<path d="M246.686 508.672V488.632H250.235L256.617 500.531L262.999 488.632H266.428V508.672H263.029V494.626L257.72 504.497H255.424L250.116 494.626V508.672H246.686Z" fill="white"/>
<path d="M233.386 509C232.163 509 231 508.821 229.897 508.433C228.823 508.046 227.839 507.449 226.974 506.644C226.109 505.809 225.423 504.765 224.946 503.483C224.469 502.171 224.23 500.62 224.23 498.771V498.204C224.23 496.445 224.469 494.954 224.946 493.701C225.453 492.449 226.109 491.405 226.974 490.6C227.839 489.795 228.793 489.228 229.897 488.84C231 488.453 232.163 488.274 233.386 488.274C234.608 488.274 235.771 488.453 236.845 488.84C237.948 489.198 238.933 489.795 239.797 490.6C240.662 491.405 241.318 492.419 241.795 493.701C242.302 494.954 242.541 496.445 242.541 498.204V498.771C242.541 500.59 242.302 502.171 241.795 503.483C241.318 504.765 240.662 505.809 239.797 506.644C238.933 507.449 237.948 508.046 236.845 508.433C235.742 508.791 234.608 509 233.386 509ZM233.386 505.958C234.34 505.958 235.235 505.719 236.07 505.272C236.905 504.825 237.591 504.079 238.127 503.036C238.664 501.992 238.933 500.56 238.933 498.801V498.234C238.933 496.564 238.664 495.222 238.127 494.238C237.591 493.224 236.905 492.508 236.07 492.061C235.235 491.614 234.34 491.375 233.386 491.375C232.431 491.375 231.537 491.614 230.672 492.061C229.837 492.508 229.151 493.224 228.614 494.238C228.107 495.222 227.839 496.564 227.839 498.234V498.801C227.839 500.59 228.107 501.992 228.614 503.036C229.151 504.079 229.837 504.825 230.672 505.272C231.507 505.719 232.431 505.958 233.386 505.958Z" fill="white"/>
<path d="M205.562 508.672V488.632H208.991V497.012H210.99L218.266 488.632H222.173L213.733 498.175L222.471 508.672H218.296L211.019 499.696H209.021V508.672H205.562Z" fill="white"/>
<path d="M193.126 502.141V499.159H202.013V502.141H193.126Z" fill="white"/>
<path d="M182.211 508.672V491.614H175.472V488.632H192.381V491.614H185.641V508.672H182.211Z" fill="white"/>
<path d="M168.613 508.672V488.632H172.042V508.672H168.613Z" fill="white"/>
</svg>
