<svg width="31" height="31" viewBox="0 0 31 31" fill="none" xmlns="http://www.w3.org/2000/svg">
<g filter="url(#filter0_d_1_148)">
<rect x="4" y="4" width="23" height="23" rx="11.5" fill="white"/>
<path d="M14.8624 19.5V12.9545H16.1365V19.5H14.8624ZM15.5059 11.9446C15.2843 11.9446 15.0939 11.8707 14.9348 11.723C14.7786 11.5724 14.7005 11.3935 14.7005 11.1861C14.7005 10.9759 14.7786 10.7969 14.9348 10.6491C15.0939 10.4986 15.2843 10.4233 15.5059 10.4233C15.7275 10.4233 15.9164 10.4986 16.0726 10.6491C16.2317 10.7969 16.3113 10.9759 16.3113 11.1861C16.3113 11.3935 16.2317 11.5724 16.0726 11.723C15.9164 11.8707 15.7275 11.9446 15.5059 11.9446Z" fill="url(#paint0_linear_1_148)"/>
</g>
<defs>
<filter id="filter0_d_1_148" x="0" y="0" width="31" height="31" filterUnits="userSpaceOnUse" color-interpolation-filters="sRGB">
<feFlood flood-opacity="0" result="BackgroundImageFix"/>
<feColorMatrix in="SourceAlpha" type="matrix" values="0 0 0 0 0 0 0 0 0 0 0 0 0 0 0 0 0 0 127 0" result="hardAlpha"/>
<feOffset/>
<feGaussianBlur stdDeviation="2"/>
<feComposite in2="hardAlpha" operator="out"/>
<feColorMatrix type="matrix" values="0 0 0 0 0.240656 0 0 0 0 0.363508 0 0 0 0 0.403333 0 0 0 0.2 0"/>
<feBlend mode="normal" in2="BackgroundImageFix" result="effect1_dropShadow_1_148"/>
<feBlend mode="normal" in="SourceGraphic" in2="effect1_dropShadow_1_148" result="shape"/>
</filter>
<linearGradient id="paint0_linear_1_148" x1="18.2556" y1="8.97472" x2="8.13199" y2="18.0046" gradientUnits="userSpaceOnUse">
<stop stop-color="#00B6F1"/>
<stop offset="1" stop-color="#4551A3"/>
</linearGradient>
</defs>
</svg>
