<svg width="145" height="48" viewBox="0 0 145 48" fill="none" xmlns="http://www.w3.org/2000/svg">
<g clip-path="url(#clip0_2001_5)">
<path d="M33.0229 20.2147C33.0229 23.3691 30.5053 25.9192 27.3992 25.9192C24.2931 25.9192 21.7755 23.3625 21.7755 20.2147C21.7755 17.0603 24.2931 14.5102 27.3992 14.5102C30.5053 14.5102 33.0229 17.067 33.0229 20.2147ZM15.7987 32.3077C13.8631 32.3077 12.2871 33.9015 12.2871 35.8672C12.2871 37.8329 13.8565 39.4267 15.7987 39.4267C17.7408 39.4267 19.3102 37.8329 19.3102 35.8672C19.3102 33.9081 17.7343 32.3077 15.7987 32.3077ZM17.6624 23.3558C15.7268 23.3558 14.1508 24.9496 14.1508 26.9153C14.1508 28.881 15.7202 30.4748 17.6624 30.4748C19.598 30.4748 21.1739 28.881 21.1739 26.9153C21.1674 24.9496 19.598 23.3558 17.6624 23.3558ZM16.9954 5.44549C15.0598 5.44549 13.4838 7.03929 13.4838 9.00498C13.4838 10.9707 15.0532 12.5645 16.9954 12.5645C18.931 12.5645 20.5069 10.9707 20.5069 9.00498C20.5004 7.03929 18.931 5.44549 16.9954 5.44549ZM3.51155 23.4488C1.56941 23.4488 0 25.0426 0 27.0149C0 28.9873 1.56941 30.5744 3.51155 30.5744C5.44715 30.5744 7.02309 28.9806 7.02309 27.0149C7.02309 25.0493 5.44715 23.4488 3.51155 23.4488ZM36.7764 12.6906C34.8408 12.6906 33.2649 14.2844 33.2649 16.2501C33.2649 18.2158 34.8343 19.8096 36.7764 19.8096C38.712 19.8096 40.288 18.2158 40.288 16.2501C40.2814 14.2911 38.712 12.6906 36.7764 12.6906ZM45.3101 19.3315C44.1395 19.3315 43.1979 20.2944 43.1979 21.4765C43.1979 22.6652 44.1461 23.6215 45.3101 23.6215C46.4806 23.6215 47.4222 22.6585 47.4222 21.4765C47.4222 20.2878 46.474 19.3315 45.3101 19.3315ZM13.268 41.2662C12.0975 41.2662 11.1559 42.2291 11.1559 43.4112C11.1559 44.5999 12.104 45.5562 13.268 45.5562C14.4385 45.5562 15.3802 44.5933 15.3802 43.4112C15.3867 42.2291 14.4385 41.2662 13.268 41.2662ZM33.1275 7.11898C31.957 7.11898 31.0154 8.0819 31.0154 9.26397C31.0154 10.446 31.9636 11.409 33.1275 11.409C34.2981 11.409 35.2397 10.446 35.2397 9.26397C35.2397 8.0819 34.2915 7.11898 33.1275 7.11898ZM9.16141 8.02214C7.99089 8.02214 7.04925 8.98506 7.04925 10.1671C7.04925 11.3492 7.99743 12.3121 9.16141 12.3121C10.3319 12.3121 11.2736 11.3492 11.2736 10.1671C11.2736 8.98506 10.3319 8.02214 9.16141 8.02214ZM42.4328 10.6187C41.2623 10.6187 40.3206 11.5816 40.3206 12.7637C40.3206 13.9524 41.2688 14.9087 42.4328 14.9087C43.6033 14.9087 44.545 13.9458 44.545 12.7637C44.545 11.575 43.6033 10.6187 42.4328 10.6187ZM18.8525 15.0349C17.682 15.0349 16.7403 15.9978 16.7403 17.1799C16.7403 18.3686 17.6885 19.3248 18.8525 19.3248C20.023 19.3248 20.9646 18.3619 20.9646 17.1799C20.9712 15.9911 20.023 15.0349 18.8525 15.0349ZM24.3846 9.27061C23.2141 9.27061 22.2725 10.2335 22.2725 11.4156C22.2725 12.5977 23.2207 13.5606 24.3846 13.5606C25.5552 13.5606 26.4968 12.5977 26.4968 11.4156C26.4968 10.2335 25.5486 9.27061 24.3846 9.27061ZM10.9335 3.75208C10.1619 3.75208 9.54068 4.3896 9.54068 5.16657C9.54068 5.95019 10.1684 6.58107 10.9335 6.58107C11.7052 6.58107 12.3264 5.94355 12.3264 5.16657C12.3264 4.3896 11.6986 3.75208 10.9335 3.75208ZM39.3332 21.0116C38.5616 21.0116 37.9404 21.6491 37.9404 22.4261C37.9404 23.2097 38.5681 23.8406 39.3332 23.8406C40.1049 23.8406 40.7261 23.2031 40.7261 22.4261C40.7261 21.6491 40.1049 21.0116 39.3332 21.0116ZM45.6239 27.5794C44.8523 27.5794 44.2311 28.2169 44.2311 28.9939C44.2311 29.7775 44.8588 30.4084 45.6239 30.4084C46.3956 30.4084 47.0168 29.7709 47.0168 28.9939C47.0168 28.2103 46.3956 27.5794 45.6239 27.5794ZM42.4851 35.0968C41.7135 35.0968 41.0923 35.7344 41.0923 36.5113C41.0923 37.295 41.72 37.9258 42.4851 37.9258C43.2567 37.9258 43.878 37.2883 43.878 36.5113C43.878 35.7344 43.2567 35.0968 42.4851 35.0968ZM38.0908 37.3215C37.3192 37.3215 36.6979 37.959 36.6979 38.736C36.6979 39.5196 37.3257 40.1505 38.0908 40.1505C38.8624 40.1505 39.4836 39.513 39.4836 38.736C39.4836 37.9524 38.8624 37.3215 38.0908 37.3215ZM26.9938 45.171C26.2222 45.171 25.6009 45.8085 25.6009 46.5855C25.6009 47.3691 26.2287 48 26.9938 48C27.7654 48 28.3866 47.3625 28.3866 46.5855C28.3932 45.8085 27.7654 45.171 26.9938 45.171ZM20.2846 0C19.5129 0 18.8917 0.637521 18.8917 1.4145C18.8917 2.19812 19.5195 2.829 20.2846 2.829C21.0562 2.829 21.6774 2.19148 21.6774 1.4145C21.6774 0.637521 21.0562 0 20.2846 0ZM36.0309 41.6646C35.2593 41.6646 34.6381 42.3022 34.6381 43.0791C34.6381 43.8561 35.2659 44.4936 36.0309 44.4936C36.8026 44.4936 37.4238 43.8561 37.4238 43.0791C37.4238 42.3022 36.8026 41.6646 36.0309 41.6646ZM21.6316 41.4986C20.86 41.4986 20.2388 42.1361 20.2388 42.9131C20.2388 43.6967 20.8666 44.3276 21.6316 44.3276C22.4033 44.3276 23.0245 43.6901 23.0245 42.9131C23.0245 42.1295 22.3967 41.4986 21.6316 41.4986ZM19.4606 45.0183C18.689 45.0183 18.0678 45.6558 18.0678 46.4328C18.0678 47.2097 18.6955 47.8473 19.4606 47.8473C20.2323 47.8473 20.8535 47.2097 20.8535 46.4328C20.8535 45.6558 20.2257 45.0183 19.4606 45.0183ZM32.2513 1.46099C31.4797 1.46099 30.8584 2.09851 30.8584 2.87548C30.8584 3.6591 31.4862 4.28998 32.2513 4.28998C33.0229 4.28998 33.6441 3.65246 33.6441 2.87548C33.6441 2.09851 33.0164 1.46099 32.2513 1.46099ZM38.2085 5.14665C37.4369 5.14665 36.8156 5.78417 36.8156 6.56115C36.8156 7.34477 37.4434 7.97565 38.2085 7.97565C38.9801 7.97565 39.6013 7.33813 39.6013 6.56115C39.6013 5.78417 38.9736 5.14665 38.2085 5.14665ZM3.89736 11.6879C3.12573 11.6879 2.50451 12.3254 2.50451 13.1024C2.50451 13.8794 3.13227 14.5169 3.89736 14.5169C4.66898 14.5169 5.29021 13.8794 5.29021 13.1024C5.29021 12.3254 4.66898 11.6879 3.89736 11.6879ZM1.66749 17.824C0.895869 17.824 0.274646 18.4615 0.274646 19.2385C0.274646 20.0221 0.902408 20.653 1.66749 20.653C2.43912 20.653 3.06034 20.0155 3.06034 19.2385C3.06034 18.4615 2.43912 17.824 1.66749 17.824ZM10.4889 27.2075C9.71724 27.2075 9.09601 27.845 9.09601 28.622C9.09601 29.4056 9.72378 30.0365 10.4889 30.0365C11.2605 30.0365 11.8817 29.399 11.8817 28.622C11.8817 27.8384 11.2539 27.2075 10.4889 27.2075ZM13.8631 1.95241C13.4707 1.95241 13.1438 2.27781 13.1438 2.6829C13.1438 3.08135 13.4642 3.41339 13.8631 3.41339C14.2554 3.41339 14.5824 3.08799 14.5824 2.6829C14.5824 2.27781 14.262 1.95241 13.8631 1.95241ZM26.0914 28.0443C24.1558 28.0443 22.5798 29.6381 22.5798 31.6038C22.5798 33.5695 24.1492 35.1633 26.0914 35.1633C28.027 35.1633 29.6029 33.5695 29.6029 31.6038C29.5964 29.6381 28.027 28.0443 26.0914 28.0443ZM36.3775 24.7703C33.2714 24.7703 30.7538 27.3271 30.7538 30.4748C30.7538 33.6292 33.2714 36.1793 36.3775 36.1793C39.4836 36.1793 42.0012 33.6226 42.0012 30.4748C41.9947 27.3271 39.4836 24.7703 36.3775 24.7703ZM23.783 36.166C22.6125 36.166 21.6709 37.1289 21.6709 38.311C21.6709 39.4997 22.6191 40.456 23.783 40.456C24.9536 40.456 25.8952 39.4931 25.8952 38.311C25.9017 37.1223 24.9536 36.166 23.783 36.166ZM30.3549 36.7172C28.4193 36.7172 26.8434 38.311 26.8434 40.2767C26.8434 42.2424 28.4128 43.8362 30.3549 43.8362C32.2905 43.8362 33.8665 42.2424 33.8665 40.2767C33.8599 38.3177 32.2905 36.7172 30.3549 36.7172ZM6.97732 32.3077C5.04172 32.3077 3.46577 33.9015 3.46577 35.8672C3.46577 37.8329 5.03518 39.4267 6.97732 39.4267C8.91292 39.4267 10.4889 37.8329 10.4889 35.8672C10.4889 33.9081 8.91292 32.3077 6.97732 32.3077ZM9.88072 13.3547C6.7746 13.3547 4.25701 15.9115 4.25701 19.0592C4.25701 22.2136 6.7746 24.7637 9.88072 24.7637C12.9868 24.7637 15.5044 22.207 15.5044 19.0592C15.4979 15.9115 12.9868 13.3547 9.88072 13.3547ZM25.9017 0.856668C23.9661 0.856668 22.3902 2.45047 22.3902 4.41616C22.3902 6.38185 23.9596 7.97565 25.9017 7.97565C27.8373 7.97565 29.4133 6.38185 29.4133 4.41616C29.4067 2.45047 27.8373 0.856668 25.9017 0.856668Z" fill="url(#paint0_radial_2001_5)"/>
<path d="M72.0684 15.7454H67.6937L60.5202 23.296V15.7454H57.3487V31.9026H60.5202V27.9513L63.6721 24.6176L68.7138 31.8959H72.8531L65.9412 22.2069L72.0684 15.7454ZM106.53 15.7454L103.712 16.6884L98.1729 18.5744V18.6076C97.2966 18.9529 96.4988 19.4776 95.8384 20.1483C95.1714 20.819 94.6548 21.6292 94.3147 22.5124C93.9747 23.4023 93.8178 24.3519 93.857 25.3016C93.8962 26.2512 94.1316 27.1876 94.5502 28.0442C94.9621 28.9009 95.5506 29.658 96.27 30.2689C96.9893 30.8799 97.8263 31.3381 98.7287 31.6037C99.6311 31.8694 100.579 31.9424 101.508 31.8162C102.436 31.6901 103.332 31.3713 104.137 30.8732C104.267 30.7869 104.398 30.7006 104.529 30.6076L106.55 29.233V31.8893H109.734V15.7454H106.53ZM106.53 25.109L102.508 28.0774C101.926 28.4626 101.246 28.6685 100.553 28.6685C99.703 28.6685 98.8791 28.3564 98.2317 27.7985C97.5843 27.2341 97.1527 26.4571 97.022 25.6071C96.8846 24.757 97.0547 23.8804 97.4993 23.1433C97.944 22.4062 98.6306 21.855 99.4415 21.5827L106.523 18.9795L106.53 25.109ZM123.493 18.1826V23.8339H123.48C123.48 23.9668 123.493 24.0996 123.493 24.239C123.493 25.3082 123.074 26.3375 122.329 27.0946C121.583 27.8517 120.57 28.2767 119.517 28.2767C118.464 28.2767 117.45 27.8517 116.705 27.0946C115.959 26.3375 115.541 25.3082 115.541 24.239C115.541 24.1062 115.547 23.9734 115.561 23.8339H115.541V15.7454H112.356V23.8273C112.356 23.9601 112.356 24.0929 112.356 24.2324C112.356 25.5473 112.709 26.8422 113.376 27.9712C114.043 29.1001 114.998 30.0232 116.143 30.6474C117.287 31.265 118.575 31.5639 119.87 31.4975C121.165 31.4311 122.42 31.0127 123.499 30.2822V35.13C123.499 35.7742 123.349 36.4051 123.061 36.9762C122.773 37.5473 122.355 38.0387 121.838 38.4172L124.107 40.7216C124.918 40.0376 125.566 39.1876 126.01 38.218C126.455 37.2551 126.69 36.1992 126.69 35.13V15.7454H123.506V18.1826H123.493ZM84.5713 15.7454H75.4165V40.7216H78.6011V31.9026L82.1518 30.7072L86.9647 29.0802V29.047C88.4491 28.4825 89.6915 27.4067 90.4762 26.0055C91.2609 24.6043 91.5356 22.9706 91.2479 21.3901C90.9667 19.8096 90.1427 18.3752 88.9264 17.3458C87.7102 16.3165 86.1734 15.752 84.591 15.752H84.5713V15.7454ZM85.683 26.0653L78.6011 28.6552V18.9729H84.5713C85.4214 18.9729 86.2454 19.285 86.8928 19.8428C87.5401 20.4073 87.9717 21.1843 88.1025 22.0343C88.2333 22.8843 88.0698 23.7609 87.6251 24.498C87.1805 25.2418 86.4939 25.793 85.683 26.0653ZM142.437 6.94629L140.168 9.25066C140.684 9.62255 141.103 10.1206 141.39 10.6917C141.678 11.2628 141.828 11.9004 141.828 12.5379V15.7852L138.284 16.9872L133.478 18.6142V18.6474C131.994 19.2119 130.751 20.2877 129.966 21.689C129.182 23.0902 128.907 24.7238 129.195 26.3043C129.476 27.8849 130.3 29.3193 131.516 30.3486C132.732 31.3779 134.269 31.9424 135.852 31.9424H145V12.5379C145.007 11.4753 144.778 10.4194 144.333 9.44989C143.888 8.48696 143.241 7.6303 142.437 6.94629ZM141.815 28.6884H135.858C135.008 28.6884 134.184 28.3829 133.537 27.8185C132.889 27.254 132.458 26.477 132.327 25.627C132.196 24.7703 132.366 23.9004 132.811 23.1632C133.256 22.4261 133.942 21.8749 134.753 21.6026L141.835 18.9994L141.815 28.6884Z" fill="#00151C"/>
</g>
<defs>
<radialGradient id="paint0_radial_2001_5" cx="0" cy="0" r="1" gradientUnits="userSpaceOnUse" gradientTransform="translate(23.711 24.0012) scale(44.3596 45.0492)">
<stop offset="0.1412" stop-color="#00B6F1"/>
<stop offset="0.8352" stop-color="#4551A3"/>
</radialGradient>
<clipPath id="clip0_2001_5">
<rect width="145" height="48" fill="white"/>
</clipPath>
</defs>
</svg>
