<svg width="24" height="24" viewBox="0 0 24 24" fill="none" xmlns="http://www.w3.org/2000/svg">
<path d="M11 10C13.2091 10 15 8.20914 15 6C15 3.79086 13.2091 2 11 2C8.79086 2 7 3.79086 7 6C7 8.20914 8.79086 10 11 10Z" fill="white"/>
<path fill-rule="evenodd" clip-rule="evenodd" d="M14.513 21.487C15.025 22 15.85 22 17.5 22C19.15 22 19.975 22 20.487 21.487C21 20.975 21 20.15 21 18.5C21 16.85 21 16.025 20.487 15.513C19.975 15 19.15 15 17.5 15C15.85 15 15.025 15 14.513 15.513C14 16.025 14 16.85 14 18.5C14 20.15 14 20.975 14.513 21.487ZM16.527 19.977C15.824 19.474 15 18.883 15 17.86C15 16.73 16.375 15.929 17.5 17.015C18.625 15.928 20 16.73 20 17.86C20 18.883 19.175 19.474 18.473 19.977L18.26 20.131C18 20.321 17.75 20.5 17.5 20.5C17.25 20.5 17 20.32 16.74 20.13L16.527 19.977Z" fill="white"/>
<path opacity="0.5" d="M14.594 21.563C14.5659 21.5389 14.5389 21.5135 14.513 21.487C14 20.975 14 20.15 14 18.5C14 16.85 14 16.025 14.513 15.513C15.025 15 15.85 15 17.5 15H17.93C16.547 13.655 13.961 12.75 11 12.75C6.582 12.75 3 14.765 3 17.25C3 19.735 3 21.75 11 21.75C12.443 21.75 13.625 21.684 14.594 21.563Z" fill="white"/>
</svg>
