<svg width="24" height="24" viewBox="0 0 24 24" fill="none" xmlns="http://www.w3.org/2000/svg">
<path opacity="0.5" d="M6.55739 15.4833H17.4435C18.5404 15.4833 19.4976 16.0954 20 17L17.8621 8.69698C17.4435 7.42384 16.6932 7 15.7687 7H8.23217C7.30685 7 6.55739 7.42465 6.13869 8.69698L4 16.9992C4.50243 16.0938 5.45957 15.4825 6.55739 15.4825" fill="white"/>
<path fill-rule="evenodd" clip-rule="evenodd" d="M17.2 16H6.80001C5.75121 16 4.83681 16.6176 4.35761 17.5324C4.1215 17.9846 3.99871 18.4886 4.00001 19C4.00001 20.6562 5.25361 22 6.80001 22H17.2C18.7464 22 20 20.6562 20 19C20.0013 18.4886 19.8785 17.9846 19.6424 17.5324C19.1624 16.6176 18.2488 16 17.2 16ZM16.8 18.1549C16.9591 18.1549 17.1117 18.2188 17.2243 18.3327C17.3368 18.4466 17.4 18.601 17.4 18.762V19.5715C17.4 19.7325 17.3368 19.8869 17.2243 20.0008C17.1117 20.1147 16.9591 20.1786 16.8 20.1786C16.6409 20.1786 16.4883 20.1147 16.3757 20.0008C16.2632 19.8869 16.2 19.7325 16.2 19.5715V18.762C16.2 18.601 16.2632 18.4466 16.3757 18.3327C16.4883 18.2188 16.6409 18.1549 16.8 18.1549ZM15.4 18.762C15.4 18.601 15.3368 18.4466 15.2243 18.3327C15.1117 18.2188 14.9591 18.1549 14.8 18.1549C14.6409 18.1549 14.4883 18.2188 14.3757 18.3327C14.2632 18.4466 14.2 18.601 14.2 18.762V19.5715C14.2 19.7325 14.2632 19.8869 14.3757 20.0008C14.4883 20.1147 14.6409 20.1786 14.8 20.1786C14.9591 20.1786 15.1117 20.1147 15.2243 20.0008C15.3368 19.8869 15.4 19.7325 15.4 19.5715V18.762ZM12.8 18.1549C12.9591 18.1549 13.1117 18.2188 13.2243 18.3327C13.3368 18.4466 13.4 18.601 13.4 18.762V19.5715C13.4 19.7325 13.3368 19.8869 13.2243 20.0008C13.1117 20.1147 12.9591 20.1786 12.8 20.1786C12.6409 20.1786 12.4883 20.1147 12.3757 20.0008C12.2632 19.8869 12.2 19.7325 12.2 19.5715V18.762C12.2 18.601 12.2632 18.4466 12.3757 18.3327C12.4883 18.2188 12.6409 18.1549 12.8 18.1549ZM11.4 18.762C11.4 18.601 11.3368 18.4466 11.2243 18.3327C11.1117 18.2188 10.9591 18.1549 10.8 18.1549C10.6409 18.1549 10.4883 18.2188 10.3757 18.3327C10.2632 18.4466 10.2 18.601 10.2 18.762V19.5715C10.2 19.7325 10.2632 19.8869 10.3757 20.0008C10.4883 20.1147 10.6409 20.1786 10.8 20.1786C10.9591 20.1786 11.1117 20.1147 11.2243 20.0008C11.3368 19.8869 11.4 19.7325 11.4 19.5715V18.762Z" fill="white"/>
<path d="M6.76866 5V4.6095L7.97675 3.35783C8.10576 3.22185 8.2121 3.10272 8.29577 3.00045C8.38061 2.89702 8.44395 2.79881 8.48579 2.70584C8.52763 2.61286 8.54855 2.51408 8.54855 2.40948C8.54855 2.29093 8.52066 2.18866 8.46487 2.10266C8.40909 2.0155 8.33296 1.94867 8.2365 1.90218C8.14004 1.85453 8.03138 1.83071 7.91051 1.83071C7.78267 1.83071 7.6711 1.85686 7.5758 1.90916C7.4805 1.96145 7.40728 2.03525 7.35614 2.13055C7.30501 2.22585 7.27944 2.33742 7.27944 2.46526H6.76517C6.76517 2.24793 6.81514 2.05792 6.91509 1.89521C7.01504 1.7325 7.15218 1.6064 7.32651 1.51692C7.50084 1.42627 7.69899 1.38094 7.92097 1.38094C8.14527 1.38094 8.34284 1.42568 8.51369 1.51517C8.68569 1.6035 8.81992 1.72437 8.91638 1.87778C9.01285 2.03002 9.06108 2.20203 9.06108 2.39379C9.06108 2.52628 9.03609 2.65586 8.98612 2.78254C8.9373 2.90922 8.85188 3.05043 8.72985 3.20616C8.60782 3.36073 8.43814 3.54842 8.22081 3.76924L7.5113 4.51188V4.53803H9.11861V5H6.76866ZM9.48037 4.30269V3.86686L11.0232 1.42975H11.3666V2.07128H11.1487L10.0452 3.81805V3.84595H12.1598V4.30269H9.48037ZM11.1731 5V4.1702L11.1766 3.97146V1.42975H11.6874V5H11.1731ZM13.9868 1.2624L12.8362 5.53693H12.3708L13.5213 1.2624H13.9868ZM14.3956 5L15.9541 1.91787V1.89172H14.1516V1.42975H16.512V1.90741L14.9587 5H14.3956Z" fill="white"/>
</svg>
