<svg width="24" height="24" viewBox="0 0 24 24" fill="none" xmlns="http://www.w3.org/2000/svg">
<path opacity="0.5" d="M1 13.529C1 8.86203 1 6.52903 2.45 5.07903C3.9 3.62903 6.233 3.62903 10.9 3.62903C15.567 3.62903 17.9 3.62903 19.35 5.07903C20.8 6.52903 20.8 8.86203 20.8 13.529C20.8 18.196 20.8 20.529 19.35 21.979C17.9 23.429 15.567 23.429 10.9 23.429C6.233 23.429 3.9 23.429 2.45 21.979C1 20.53 1 18.195 1 13.529Z" fill="white"/>
<path d="M17.67 1.90702L20.263 4.15502C22.048 5.70102 22.941 6.47502 22.941 7.48002C22.941 8.48402 22.048 9.25802 20.263 10.805L17.67 13.052C16.885 13.732 16.493 14.072 16.172 13.925C15.85 13.779 15.85 13.259 15.85 12.221V10.544C13.2 10.544 10.373 11.532 8.65 13.244C8.125 13.764 7.862 14.025 7.723 13.959C7.583 13.893 7.616 13.556 7.681 12.883C8.329 6.16202 12.742 4.41502 15.85 4.41502V2.74002C15.85 1.70002 15.85 1.18202 16.172 1.03502C16.493 0.888023 16.885 1.22802 17.67 1.90802" fill="white"/>
</svg>
