<svg width="24" height="24" viewBox="0 0 24 24" fill="none" xmlns="http://www.w3.org/2000/svg">
<path opacity="0.3" d="M4.666 9C3.734 9 3.268 9 2.901 8.848C2.65818 8.74749 2.43755 8.6001 2.25172 8.41428C2.0659 8.22845 1.91851 8.00782 1.818 7.765C1.666 7.398 1.666 6.932 1.666 6C1.666 5.068 1.666 4.602 1.818 4.235C1.91851 3.99218 2.0659 3.77155 2.25172 3.58572C2.43755 3.3999 2.65818 3.25251 2.901 3.152C3.268 3 3.734 3 4.666 3H11.934C11.8902 3.07567 11.8514 3.15418 11.818 3.235C11.666 3.602 11.666 4.068 11.666 5V9H4.666ZM21.666 6C21.666 6.932 21.666 7.398 21.514 7.765C21.4135 8.00782 21.2661 8.22845 21.0803 8.41428C20.8944 8.6001 20.6738 8.74749 20.431 8.848C20.064 9 19.598 9 18.666 9H17.666V5C17.666 4.068 17.666 3.602 17.514 3.235C17.4805 3.15422 17.4418 3.07572 17.398 3H18.666C19.598 3 20.064 3 20.431 3.152C20.6738 3.25251 20.8944 3.3999 21.0803 3.58572C21.2661 3.77155 21.4135 3.99218 21.514 4.235C21.666 4.602 21.666 5.068 21.666 6Z" fill="white"/>
<path opacity="0.7" d="M17.514 20.765C17.666 20.398 17.666 19.932 17.666 19V15H18.666C19.598 15 20.064 15 20.431 15.152C20.6738 15.2525 20.8944 15.3999 21.0803 15.5857C21.2661 15.7716 21.4135 15.9922 21.514 16.235C21.666 16.602 21.666 17.068 21.666 18C21.666 18.932 21.666 19.398 21.514 19.765C21.4135 20.0078 21.2661 20.2284 21.0803 20.4143C20.8944 20.6001 20.6738 20.7475 20.431 20.848C20.064 21 19.598 21 18.666 21H17.398C17.442 20.925 17.48 20.846 17.514 20.765ZM11.934 21H4.666C3.734 21 3.268 21 2.901 20.848C2.65818 20.7475 2.43755 20.6001 2.25172 20.4143C2.0659 20.2284 1.91851 20.0078 1.818 19.765C1.666 19.398 1.666 18.932 1.666 18C1.666 17.068 1.666 16.602 1.818 16.235C1.91851 15.9922 2.0659 15.7716 2.25172 15.5857C2.43755 15.3999 2.65818 15.2525 2.901 15.152C3.268 15 3.734 15 4.666 15H11.666V19C11.666 19.932 11.666 20.398 11.818 20.765C11.852 20.846 11.89 20.925 11.934 21Z" fill="white"/>
<path opacity="0.5" d="M17.666 9H18.666C19.598 9 20.064 9 20.431 9.152C20.6738 9.25251 20.8944 9.3999 21.0803 9.58572C21.2661 9.77155 21.4135 9.99218 21.514 10.235C21.666 10.602 21.666 11.068 21.666 12C21.666 12.932 21.666 13.398 21.514 13.765C21.4135 14.0078 21.2661 14.2284 21.0803 14.4143C20.8944 14.6001 20.6738 14.7475 20.431 14.848C20.064 15 19.598 15 18.666 15H17.666V9ZM11.666 9V15H4.666C3.734 15 3.268 15 2.901 14.848C2.65818 14.7475 2.43755 14.6001 2.25172 14.4143C2.0659 14.2284 1.91851 14.0078 1.818 13.765C1.666 13.398 1.666 12.932 1.666 12C1.666 11.068 1.666 10.602 1.818 10.235C1.91851 9.99218 2.0659 9.77155 2.25172 9.58572C2.43755 9.3999 2.65818 9.25251 2.901 9.152C3.268 9 3.734 9 4.666 9H11.666Z" fill="white"/>
<path fill-rule="evenodd" clip-rule="evenodd" d="M17.514 3.235C17.666 3.602 17.666 4.068 17.666 5V19C17.666 19.932 17.666 20.398 17.514 20.765C17.3107 21.2552 16.9212 21.6447 16.431 21.848C16.064 22 15.598 22 14.666 22C13.734 22 13.268 22 12.901 21.848C12.6582 21.7475 12.4376 21.6001 12.2517 21.4143C12.0659 21.2284 11.9185 21.0078 11.818 20.765C11.666 20.398 11.666 19.932 11.666 19V5C11.666 4.068 11.666 3.602 11.818 3.235C12.021 2.74517 12.4102 2.35598 12.9 2.153C13.269 2 13.735 2 14.667 2C15.599 2 16.065 2 16.432 2.152C16.6748 2.25251 16.8954 2.3999 17.0813 2.58572C17.2671 2.77155 17.4135 2.99218 17.514 3.235ZM15.416 11C15.416 10.8011 15.337 10.6103 15.1963 10.4697C15.0557 10.329 14.8649 10.25 14.666 10.25C14.4671 10.25 14.2763 10.329 14.1357 10.4697C13.995 10.6103 13.916 10.8011 13.916 11V13C13.916 13.1989 13.995 13.3897 14.1357 13.5303C14.2763 13.671 14.4671 13.75 14.666 13.75C14.8649 13.75 15.0557 13.671 15.1963 13.5303C15.337 13.3897 15.416 13.1989 15.416 13V11Z" fill="white"/>
</svg>
